<svg width="200" height="200" viewBox="0 0 200 200" fill="none" xmlns="http://www.w3.org/2000/svg">
<path d="M191.743 60.4043C187.991 51.8233 183.026 43.8263 176.999 36.659C168.089 25.7476 156.971 16.8471 144.374 10.5437C131.778 4.24024 117.99 0.676603 103.918 0.0873223C89.8459 -0.501959 75.8084 1.89646 62.7294 7.12485C49.6509 12.3532 37.8273 20.2929 28.0373 30.4213C18.2471 40.5497 10.7124 52.6373 5.9289 65.8886C1.14545 79.1395 -0.778332 93.2539 0.284298 107.302C1.347 121.351 5.37186 135.015 12.0941 147.395C18.8164 159.775 28.0836 170.591 39.2859 179.131C46.4738 184.72 54.4162 189.263 62.8768 192.626C74.7387 197.488 87.4344 199.993 100.254 200C126.716 199.942 152.075 189.391 170.773 170.66C189.47 151.929 199.981 126.547 200 100.078C200.019 86.4246 197.208 72.9156 191.743 60.4043ZM100.18 20.3617C111.693 20.3606 123.066 22.8774 133.503 27.736C130.958 28.8361 128.282 29.6044 125.541 30.0222C116.521 31.3281 108.167 35.5165 101.722 41.9624C95.2784 48.4082 91.091 56.7658 89.7854 65.7876C89.2126 70.8471 86.9117 75.5541 83.2721 79.1144C79.6324 82.6747 74.8766 84.8693 69.8067 85.3295C60.7876 86.6355 52.4324 90.8241 45.9884 97.27C39.5445 103.716 35.3571 112.073 34.0516 121.095C33.6096 125.906 31.5575 130.427 28.2275 133.926C22.482 121.783 19.901 108.382 20.7246 94.9729C21.5482 81.5634 25.7497 68.5802 32.9382 57.2311C40.1265 45.8827 50.0682 36.5374 61.8381 30.0652C73.6078 23.593 86.8232 20.2043 100.254 20.2142L100.18 20.3617ZM39.2121 151.698C40.0968 150.887 40.9815 150.15 41.8661 149.265C48.4248 142.904 52.6348 134.508 53.8091 125.446C54.2852 120.352 56.5589 115.594 60.2229 112.024C63.749 108.354 68.4945 106.098 73.5665 105.683C82.5857 104.377 90.9406 100.188 97.3847 93.7421C103.829 87.2962 108.016 78.9389 109.322 69.9172C109.641 64.5892 111.926 59.5695 115.736 55.8322C119.349 52.2325 124.139 50.0589 129.227 49.7115C137.512 48.5712 145.24 44.8866 151.343 39.1663C158.293 44.9335 164.181 51.8714 168.742 59.6669C168.462 60.0452 168.14 60.3918 167.783 60.6993C164.265 64.4027 159.525 66.7079 154.44 67.1887C145.411 68.4718 137.043 72.653 130.595 79.1026C124.147 85.5529 119.967 93.9228 118.684 102.954C118.165 108.031 115.907 112.771 112.293 116.373C108.678 119.975 103.93 122.217 98.8532 122.717C89.8075 124.013 81.4216 128.193 74.94 134.636C68.4591 141.08 64.2282 149.442 62.8768 158.483C62.4802 162.086 61.2424 165.547 59.2645 168.585C51.7006 164.093 44.9263 158.388 39.2121 151.698ZM100.18 180.163C92.6996 180.171 85.2544 179.129 78.0636 177.066C80.5237 172.479 82.1227 167.48 82.7818 162.317C83.2986 157.252 85.5464 152.52 89.1455 148.92C92.7446 145.319 97.4753 143.071 102.539 142.554C111.572 141.263 119.944 137.081 126.402 130.634C132.86 124.187 137.059 115.821 138.368 106.789C138.885 101.723 141.133 96.9912 144.732 93.3911C148.331 89.7909 153.062 87.5425 158.126 87.0256C164.923 86.1414 171.402 83.6098 176.999 79.6513C180.107 91.4347 180.475 103.773 178.075 115.721C175.675 127.669 170.571 138.909 163.154 148.577C155.738 158.245 146.206 166.086 135.29 171.498C124.374 176.909 112.364 179.747 100.18 179.794V180.163Z" fill="#FFFFFF"/>
</svg>
